<svg width="56" height="15" viewBox="0 0 56 15" fill="none" xmlns="http://www.w3.org/2000/svg">
<path d="M12.6758 14H10.1621V5C10.1621 4.82422 10.127 4.66016 10.0566 4.50781C9.99219 4.35547 9.90137 4.22363 9.78418 4.1123C9.67285 3.99512 9.54102 3.9043 9.38867 3.83984C9.23633 3.77539 9.07227 3.74316 8.89648 3.74316C8.7207 3.74316 8.55664 3.77539 8.4043 3.83984C8.25195 3.9043 8.11719 3.99512 8 4.1123C7.88867 4.22363 7.80078 4.35547 7.73633 4.50781C7.67188 4.66016 7.63965 4.82422 7.63965 5V14H5.11719V5C5.11719 4.82422 5.08496 4.66016 5.02051 4.50781C4.95605 4.35547 4.86523 4.22363 4.74805 4.1123C4.63672 3.99512 4.50488 3.9043 4.35254 3.83984C4.2002 3.77539 4.03613 3.74316 3.86035 3.74316C3.68457 3.74316 3.52051 3.77539 3.36816 3.83984C3.21582 3.9043 3.08105 3.99512 2.96387 4.1123C2.85254 4.22363 2.76465 4.35547 2.7002 4.50781C2.63574 4.66016 2.60352 4.82422 2.60352 5V14H0.0810547V5C0.0810547 4.47852 0.177734 3.98926 0.371094 3.53223C0.570312 3.06934 0.839844 2.66797 1.17969 2.32812C1.52539 1.98242 1.92676 1.71289 2.38379 1.51953C2.84668 1.32031 3.33887 1.2207 3.86035 1.2207C4.3291 1.2207 4.78027 1.30566 5.21387 1.47559C5.64746 1.63965 6.03711 1.87988 6.38281 2.19629C6.72852 1.87988 7.11523 1.63965 7.54297 1.47559C7.97656 1.30566 8.42773 1.2207 8.89648 1.2207C9.41797 1.2207 9.90723 1.32031 10.3643 1.51953C10.8271 1.71289 11.2285 1.98242 11.5684 2.32812C11.9141 2.66797 12.1836 3.06934 12.377 3.53223C12.5762 3.98926 12.6758 4.47852 12.6758 5V14ZM23.6709 9.20996C23.6709 9.91309 23.5449 10.5693 23.293 11.1787C23.041 11.7822 22.6982 12.3066 22.2646 12.752C21.8311 13.1914 21.3213 13.54 20.7354 13.7979C20.1553 14.0498 19.5312 14.1758 18.8633 14.1758C18.2012 14.1758 17.5771 14.0498 16.9912 13.7979C16.4111 13.54 15.9014 13.1914 15.4619 12.752C15.0283 12.3066 14.6855 11.7822 14.4336 11.1787C14.1816 10.5693 14.0557 9.91309 14.0557 9.20996C14.0557 8.49512 14.1816 7.83301 14.4336 7.22363C14.6855 6.61426 15.0283 6.08984 15.4619 5.65039C15.9014 5.20508 16.4111 4.85645 16.9912 4.60449C17.5771 4.35254 18.2012 4.22656 18.8633 4.22656C19.5312 4.22656 20.1553 4.34668 20.7354 4.58691C21.3213 4.82129 21.8311 5.1582 22.2646 5.59766C22.6982 6.03125 23.041 6.55566 23.293 7.1709C23.5449 7.78027 23.6709 8.45996 23.6709 9.20996ZM21.2539 9.20996C21.2539 8.82324 21.1895 8.47461 21.0605 8.16406C20.9375 7.84766 20.7676 7.57812 20.5508 7.35547C20.334 7.12695 20.0791 6.9541 19.7861 6.83691C19.499 6.71387 19.1914 6.65234 18.8633 6.65234C18.5352 6.65234 18.2246 6.71387 17.9316 6.83691C17.6445 6.9541 17.3926 7.12695 17.1758 7.35547C16.9648 7.57812 16.7979 7.84766 16.6748 8.16406C16.5518 8.47461 16.4902 8.82324 16.4902 9.20996C16.4902 9.57324 16.5518 9.91016 16.6748 10.2207C16.7979 10.5312 16.9648 10.8008 17.1758 11.0293C17.3926 11.2578 17.6445 11.4395 17.9316 11.5742C18.2246 11.7031 18.5352 11.7676 18.8633 11.7676C19.1914 11.7676 19.499 11.7061 19.7861 11.583C20.0791 11.46 20.334 11.2871 20.5508 11.0645C20.7676 10.8418 20.9375 10.5723 21.0605 10.2559C21.1895 9.93945 21.2539 9.59082 21.2539 9.20996ZM27.3887 14L23.8027 4.58691H26.5361L28.5928 10.458L30.6406 4.58691H33.3828L29.7969 14H27.3887ZM37.127 2.0293C37.127 2.25195 37.083 2.45996 36.9951 2.65332C36.9131 2.84668 36.7988 3.0166 36.6523 3.16309C36.5059 3.30371 36.333 3.41797 36.1338 3.50586C35.9404 3.58789 35.7324 3.62891 35.5098 3.62891C35.2871 3.62891 35.0762 3.58789 34.877 3.50586C34.6836 3.41797 34.5137 3.30371 34.3672 3.16309C34.2266 3.0166 34.1123 2.84668 34.0244 2.65332C33.9424 2.45996 33.9014 2.25195 33.9014 2.0293C33.9014 1.8125 33.9424 1.60742 34.0244 1.41406C34.1123 1.21484 34.2266 1.04492 34.3672 0.904297C34.5137 0.757812 34.6836 0.643555 34.877 0.561523C35.0762 0.473633 35.2871 0.429688 35.5098 0.429688C35.7324 0.429688 35.9404 0.473633 36.1338 0.561523C36.333 0.643555 36.5059 0.757812 36.6523 0.904297C36.7988 1.04492 36.9131 1.21484 36.9951 1.41406C37.083 1.60742 37.127 1.8125 37.127 2.0293ZM36.7139 14H34.2969V4.58691H36.7139V14ZM42.2949 11.6973C42.3887 11.7266 42.4824 11.7471 42.5762 11.7588C42.6699 11.7646 42.7637 11.7676 42.8574 11.7676C43.0918 11.7676 43.3174 11.7354 43.5342 11.6709C43.751 11.6064 43.9531 11.5156 44.1406 11.3984C44.334 11.2754 44.5039 11.1289 44.6504 10.959C44.8027 10.7832 44.9258 10.5898 45.0195 10.3789L46.7773 12.1455C46.5547 12.4619 46.2969 12.7461 46.0039 12.998C45.7168 13.25 45.4033 13.4639 45.0635 13.6396C44.7295 13.8154 44.375 13.9473 44 14.0352C43.6309 14.1289 43.25 14.1758 42.8574 14.1758C42.1953 14.1758 41.5713 14.0527 40.9854 13.8066C40.4053 13.5605 39.8955 13.2178 39.4561 12.7783C39.0225 12.3389 38.6797 11.8174 38.4277 11.2139C38.1758 10.6045 38.0498 9.93652 38.0498 9.20996C38.0498 8.46582 38.1758 7.78613 38.4277 7.1709C38.6797 6.55566 39.0225 6.03125 39.4561 5.59766C39.8955 5.16406 40.4053 4.82715 40.9854 4.58691C41.5713 4.34668 42.1953 4.22656 42.8574 4.22656C43.25 4.22656 43.6338 4.27344 44.0088 4.36719C44.3838 4.46094 44.7383 4.5957 45.0723 4.77148C45.4121 4.94727 45.7285 5.16406 46.0215 5.42188C46.3145 5.67383 46.5723 5.95801 46.7949 6.27441L42.2949 11.6973ZM43.5254 6.74902C43.4141 6.70801 43.3027 6.68164 43.1914 6.66992C43.0859 6.6582 42.9746 6.65234 42.8574 6.65234C42.5293 6.65234 42.2188 6.71387 41.9258 6.83691C41.6387 6.9541 41.3867 7.12402 41.1699 7.34668C40.959 7.56934 40.792 7.83887 40.6689 8.15527C40.5459 8.46582 40.4844 8.81738 40.4844 9.20996C40.4844 9.29785 40.4873 9.39746 40.4932 9.50879C40.5049 9.62012 40.5195 9.73438 40.5371 9.85156C40.5605 9.96289 40.5869 10.0713 40.6162 10.1768C40.6455 10.2822 40.6836 10.376 40.7305 10.458L43.5254 6.74902ZM55.3555 14H47.5068L51.4707 6.99512H47.5068V4.60449H55.3555L51.3916 11.6094H55.3555V14Z" fill="black"/>
</svg>
